<svg id="Vrstva_2" xmlns="http://www.w3.org/2000/svg" viewBox="0 0 350.57 294.02"><g id="Vrstva_1-2"><rect x="80.65" y="178.39" width="69" height="69" style="fill:#bfdbfe; stroke-width:0px;"/><rect x="252.3" y="224.93" width="69" height="69" style="fill:#fc8181; stroke-width:0px;"/><path d="M0,195.95v-46.54c28.41,0,51.44-23.03,51.44-51.44h46.54c0,54.11-43.87,97.98-97.98,97.98Z" style="fill:#3b82f6; stroke-width:0px;"/><path d="M149.33,0C95.22,0,51.35,43.87,51.35,97.98V0h97.98Z" style="fill:#bfdbfe; stroke-width:0px;"/><path d="M252.3,0v46.54c-28.41,0-51.44,23.03-51.44,51.44h-46.54C154.32,43.87,198.19,0,252.3,0Z" style="fill:#1e40af; stroke-width:0px;"/><path d="M350.27,97.98h-46.53c0-28.41-23.03-51.44-51.44-51.44V0C306.41,0,350.27,43.87,350.27,97.98Z" style="fill:#60a5fa; stroke-width:0px;"/><path d="M252.31,195.95v46.54c-28.41,0-51.44,23.03-51.44,51.44h-46.54c0-54.11,43.87-97.98,97.98-97.98Z" style="fill:#1d4ed8; stroke-width:0px;"/><path d="M350.27,97.98c0,54.11-43.86,97.97-97.97,97.97v-46.53c28.41,0,51.44-23.03,51.44-51.44h46.53Z" style="fill:#3b82f6; stroke-width:0px;"/><path d="M247.3,97.98h-46.53c0-28.41-23.03-51.44-51.44-51.44s-51.44,23.03-51.44,51.44h-46.54C51.35,43.87,95.22,0,149.33,0s97.97,43.87,97.97,97.98Z" style="fill:#3b82f6; stroke-width:0px;"/><path d="M97.98,195.95H0c54.11,0,97.98-43.86,97.98-97.97v97.97Z" style="fill:#cadff1; stroke-width:0px;"/><path d="M247.29,97.98c0,54.11-43.86,97.97-97.97,97.97v-46.53c28.41,0,51.44-23.03,51.44-51.44h46.53Z" style="fill:#1e40af; stroke-width:0px;"/><path d="M350.27,97.98v97.97h-97.97c54.11,0,97.97-43.86,97.97-97.97Z" style="fill:#fc8181; stroke-width:0px;"/><path d="M252.3,149.42v46.53c-54.11,0-97.98-43.86-97.98-97.97h46.54c0,28.41,23.03,51.44,51.44,51.44Z" style="fill:#60a5fa; stroke-width:0px;"/><rect x="51.35" y="247.39" width="46.63" height="46.63" style="fill:#bfdbfe; stroke-width:0px;"/><rect x="257.31" y="195.95" width="46.63" height="46.63" style="fill:#bfdbfe; stroke-width:0px;"/><rect x="303.95" y="195.95" width="46.63" height="46.63" style="fill:#bfdbfe; stroke-width:0px;"/><path d="M51.35,247.39h0v46.63H4.73c0-25.73,20.89-46.63,46.63-46.63Z" style="fill:#1e40af; stroke-width:0px;"/><path d="M51.35,97.97h38.79c32.67,0,59.19,26.52,59.19,59.19v38.79H51.35v-97.98h0Z" style="fill:#bfdbfe; stroke-width:0px;"/><path d="M97.88,247.39h-46.53c0-54.11,43.86-97.98,97.97-97.98v46.54c-28.41,0-51.44,23.03-51.44,51.44Z" style="fill:#60a5fa; stroke-width:0px;"/><path d="M51.35,181.43c27.98-17.25,46.63-48.18,46.63-83.46h-46.54c0,1.01-.04,2.01-.09,3v80.46Z" style="fill:#1d4ed8; stroke-width:0px;"/><path d="M350.28,293.93h-46.53c0-28.41-23.03-51.44-51.44-51.44v-46.54c54.11,0,97.97,43.87,97.97,97.98Z" style="fill:#3b82f6; stroke-width:0px;"/></g></svg>